<svg width="8" height="14" viewBox="0 0 8 14" fill="none" xmlns="http://www.w3.org/2000/svg">
<path fill-rule="evenodd" clip-rule="evenodd" d="M7.39094 6.2929C7.57841 6.48043 7.68372 6.73474 7.68372 6.9999C7.68372 7.26507 7.57841 7.51937 7.39094 7.7069L1.73394 13.3639C1.64169 13.4594 1.53135 13.5356 1.40934 13.588C1.28734 13.6404 1.15612 13.668 1.02334 13.6692C0.890559 13.6703 0.758879 13.645 0.635983 13.5947C0.513087 13.5444 0.401434 13.4702 0.307541 13.3763C0.213649 13.2824 0.139396 13.1708 0.0891148 13.0479C0.0388339 12.925 0.0135324 12.7933 0.0146862 12.6605C0.01584 12.5277 0.0434263 12.3965 0.0958353 12.2745C0.148244 12.1525 0.224426 12.0421 0.319936 11.9499L5.26994 6.9999L0.319936 2.0499C0.137778 1.8613 0.036984 1.6087 0.0392624 1.3465C0.0415408 1.0843 0.14671 0.83349 0.332118 0.648083C0.517526 0.462675 0.768339 0.357505 1.03054 0.355227C1.29273 0.352948 1.54533 0.453742 1.73394 0.6359L7.39094 6.2929Z" fill="white"/>
</svg>
