<svg width="286" height="101" viewBox="0 0 286 101" fill="none" xmlns="http://www.w3.org/2000/svg">
<path d="M1 70.5043C1.8836 61.7723 5.32548 41.8329 11.4841 34.2586C17.8394 26.4424 42.8242 31.0509 58.3759 28.3749C68.1006 26.7015 73.8741 20.9624 86.946 20.1546C98.1211 19.4639 118.608 19.5629 130.503 19.0338C145.171 18.3814 155.406 13.5754 168.197 7.70022C176.657 3.81419 181.002 1.17723 185.385 1.00664C191.205 0.780135 205.848 6.36588 224.857 14.7496C237.474 20.3144 242.635 26.6435 248.393 29.2575C254.888 32.2062 267.389 33.4213 280.351 35.0222C284.948 35.5899 284.598 38.7238 284.323 40.4681C283.506 45.6461 275.972 52.1995 267.564 57.8583C254.015 66.9774 225.6 61.2528 223.324 63.4642C219.148 67.5207 216.674 72.1236 213.947 74.1438C212.613 75.1317 210.866 75.4955 201.486 75.957C192.107 76.4186 175.017 76.8266 164.04 77.2868C148.695 77.9301 142.128 78.7235 130.762 77.9522C105.141 76.2135 87.3627 74.3231 85.0382 74.4597C82.0822 74.6334 76.3863 78.32 67.4965 84.5411C49.6734 97.0139 37.4659 100.612 28.6203 99.9181C19.3479 96.2093 11.1968 87.7971 6.05334 75.9496C4.20775 69.824 3.9144 63.4684 3.61216 56.9202" stroke="white" stroke-width="2" stroke-linecap="round"/>
</svg>
