<svg width="23" height="23" viewBox="0 0 23 23" fill="none" xmlns="http://www.w3.org/2000/svg">
<path fill-rule="evenodd" clip-rule="evenodd" d="M11.0383 0.378782C11.1916 0.202991 11.4134 0.102539 11.6467 0.102539C11.8801 0.102539 12.1019 0.202991 12.2552 0.378782L13.2242 1.48689C13.4497 1.74483 13.7468 1.92951 14.0775 2.01846C14.4081 2.10687 14.7576 2.09537 15.0815 1.98497L16.4753 1.50939C16.696 1.43405 16.9383 1.45812 17.1402 1.57427C17.3422 1.69094 17.484 1.88923 17.5289 2.11786L17.8141 3.56239C17.8805 3.89827 18.0453 4.20695 18.2871 4.44919C18.5293 4.6909 18.838 4.85571 19.1739 4.92215L20.6184 5.20729C20.847 5.25228 21.0453 5.39407 21.162 5.59602C21.2781 5.79797 21.3022 6.0402 21.2268 6.26099L20.7513 7.65476C20.6409 7.97861 20.6294 8.32811 20.7178 8.65876C20.8067 8.98942 20.9914 9.28658 21.2493 9.51207L22.3575 10.481C22.5332 10.6343 22.6337 10.8562 22.6337 11.0895C22.6337 11.3228 22.5332 11.5447 22.3575 11.698L21.2493 12.6669C20.9914 12.8924 20.8067 13.1896 20.7178 13.5202C20.6294 13.8509 20.6409 14.2004 20.7513 14.5242L21.2268 15.918C21.3022 16.1388 21.2781 16.381 21.162 16.583C21.0453 16.7849 20.847 16.9267 20.6184 16.9717L19.1739 17.2568C18.838 17.3233 18.5293 17.4881 18.2871 17.7298C18.0453 17.972 17.8805 18.2807 17.8141 18.6166L17.5289 20.0611C17.484 20.2898 17.3422 20.4881 17.1402 20.6047C16.9383 20.7209 16.696 20.7449 16.4753 20.6696L15.0815 20.194C14.7576 20.0836 14.4081 20.0721 14.0775 20.1605C13.7468 20.2495 13.4497 20.4342 13.2242 20.6921L12.2552 21.8002C12.1019 21.976 11.8801 22.0764 11.6467 22.0764C11.4134 22.0764 11.1916 21.976 11.0383 21.8002L10.0693 20.6921C9.84384 20.4342 9.54667 20.2495 9.21601 20.1605C8.88536 20.0721 8.53587 20.0836 8.21201 20.194L6.81824 20.6696C6.59745 20.7449 6.35522 20.7209 6.15327 20.6047C5.95132 20.4881 5.80953 20.2898 5.76454 20.0611L5.4794 18.6166C5.41296 18.2807 5.24815 17.972 5.00644 17.7298C4.7642 17.4881 4.45552 17.3233 4.11964 17.2568L2.67511 16.9717C2.44648 16.9267 2.24819 16.7849 2.13152 16.583C2.01537 16.381 1.9913 16.1388 2.06664 15.918L2.54223 14.5242C2.65262 14.2004 2.66413 13.8509 2.57571 13.5202C2.48676 13.1896 2.30208 12.8924 2.04414 12.6669L0.936033 11.698C0.760242 11.5447 0.65979 11.3228 0.65979 11.0895C0.65979 10.8562 0.760242 10.6343 0.936033 10.481L2.04414 9.51207C2.30208 9.28658 2.48676 8.98942 2.57571 8.65876C2.66413 8.32811 2.65262 7.97861 2.54223 7.65476L2.06664 6.26099C1.9913 6.0402 2.01537 5.79797 2.13152 5.59602C2.24819 5.39407 2.44648 5.25228 2.67511 5.20729L4.11964 4.92215C4.45552 4.85571 4.7642 4.6909 5.00644 4.44919C5.24815 4.20695 5.41296 3.89827 5.4794 3.56239L5.76454 2.11786C5.80953 1.88923 5.95132 1.69094 6.15327 1.57427C6.35522 1.45812 6.59745 1.43405 6.81824 1.50939L8.21201 1.98497C8.53587 2.09537 8.88536 2.10687 9.21601 2.01846C9.54667 1.92951 9.84384 1.74483 10.0693 1.48689L11.0383 0.378782ZM6.8376 11.4594L9.79675 14.4191C10.0013 14.6231 10.3325 14.6231 10.5371 14.4191L16.4559 8.4997C16.6605 8.29566 16.6605 7.96396 16.4559 7.75992C16.2518 7.55587 15.9201 7.55587 15.7161 7.75992L10.1672 13.3094L7.57739 10.7196C7.37334 10.5156 7.04164 10.5156 6.8376 10.7196C6.63303 10.9236 6.63303 11.2553 6.8376 11.4594Z" fill="white"/>
</svg>
