<svg width="33" height="36" viewBox="0 0 33 36" fill="none" xmlns="http://www.w3.org/2000/svg">
<path d="M24.6548 32.2637C24.4602 32.5038 24.2327 32.6893 23.9855 32.8097C23.7382 32.93 23.476 32.9829 23.2138 32.9652C22.9515 32.9475 22.6944 32.8597 22.4571 32.7066C22.2198 32.5536 22.0069 32.3384 21.8307 32.0733C21.6544 31.8083 21.5182 31.4985 21.4298 31.1617C21.3415 30.8249 21.3027 30.4678 21.3156 30.1106C21.3286 29.7533 21.3931 29.4031 21.5055 29.0799C21.6178 28.7566 21.7758 28.4667 21.9704 28.2266C24.8676 24.6525 26.4407 21.3331 27.2782 18.5032C25.9094 19.172 24.4216 19.2433 23.0216 18.7072C21.6217 18.1711 20.3791 17.0543 19.4666 15.512C18.5542 13.9696 18.0171 12.0784 17.9302 10.1011C17.8432 8.12385 18.2106 6.1588 18.9814 4.47909C19.7521 2.79938 20.8879 1.48846 22.2308 0.728546C23.5738 -0.0313669 25.0572 -0.202518 26.4748 0.238873C27.8925 0.680264 29.174 1.71227 30.1412 3.19146C31.1084 4.67064 31.7132 6.52351 31.8717 8.49253C32.3534 11.7905 32.2353 15.1991 31.5274 18.4205C30.6169 22.6545 28.5967 27.4007 24.6548 32.2637ZM6.73716 34.5266C6.54256 34.7667 6.31513 34.9522 6.06789 35.0726C5.82064 35.1929 5.55841 35.2458 5.29617 35.2281C5.03393 35.2104 4.77681 35.1226 4.5395 34.9696C4.30218 34.8165 4.08932 34.6013 3.91307 34.3363C3.73681 34.0712 3.6006 33.7614 3.51224 33.4246C3.42387 33.0879 3.38507 32.7307 3.39804 32.3735C3.41102 32.0163 3.47552 31.666 3.58787 31.3428C3.70021 31.0195 3.85819 30.7296 4.0528 30.4895C6.94996 26.9154 8.52314 23.596 9.36058 20.7661C7.99176 21.4349 6.50398 21.5062 5.10403 20.9701C3.70408 20.434 2.46151 19.3172 1.54904 17.7749C0.636574 16.2325 0.0995296 14.3413 0.0125623 12.364C-0.074409 10.3868 0.293017 8.42171 1.06377 6.742C1.83451 5.06229 2.9703 3.75137 4.31324 2.99146C5.65619 2.23155 7.13958 2.0604 8.55724 2.50179C9.97489 2.94318 11.2564 3.97519 12.2236 5.45437C13.1908 6.93356 13.7956 8.78643 13.9541 10.7554C14.4359 14.0535 14.3177 17.462 13.6098 20.6835C12.6973 24.9177 10.6791 29.6636 6.73716 34.5266Z" fill="white"/>
</svg>
