<svg width="20" height="18" viewBox="0 0 20 18" fill="none" xmlns="http://www.w3.org/2000/svg">
<path fill-rule="evenodd" clip-rule="evenodd" d="M17.4899 0.64592C17.7119 0.509995 17.977 0.466884 18.2296 0.525637C18.4822 0.58439 18.7026 0.740438 18.8445 0.961029L19.8365 2.50088C19.9658 2.70204 20.0211 2.94323 19.9927 3.18187C19.9643 3.42051 19.854 3.64127 19.6812 3.80517L19.6782 3.80925L19.6642 3.8225L19.607 3.87655L19.3816 4.0958C18.1341 5.32727 16.9245 6.59784 15.7544 7.90566C13.5531 10.3694 10.9389 13.5939 9.17947 16.7226C8.6885 17.5955 7.48914 17.7831 6.77773 17.0295L0.279915 10.1583C0.186796 10.0598 0.114087 9.94327 0.0661092 9.81559C0.0181314 9.68792 -0.00413569 9.55173 0.000631356 9.41512C0.0053984 9.27851 0.0371023 9.14427 0.0938586 9.02038C0.150615 8.89649 0.231265 8.78548 0.331015 8.69394L2.29489 6.89099C2.46747 6.73263 2.68877 6.64024 2.9209 6.62964C3.15304 6.61903 3.38157 6.69087 3.5674 6.83286L6.88294 9.36291C12.0622 4.16514 14.999 2.17048 17.4899 0.64592Z" fill="#2C43EB"/>
</svg>
